<?xml version="1.0" encoding="utf-8"?>
<!-- Generator: Adobe Illustrator 16.0.0, SVG Export Plug-In . SVG Version: 6.00 Build 0)  -->
<!DOCTYPE svg PUBLIC "-//W3C//DTD SVG 1.1//EN" "http://www.w3.org/Graphics/SVG/1.1/DTD/svg11.dtd">
<svg version="1.1" id="Layer_1" xmlns="http://www.w3.org/2000/svg" xmlns:xlink="http://www.w3.org/1999/xlink" x="0px" y="0px"
	 width="17.707px" height="16.539px" viewBox="0 0 17.707 16.539" enable-background="new 0 0 17.707 16.539" xml:space="preserve">
<g>
	<text transform="matrix(1 0 0 1 787.4111 -631.0532)" font-family="'Gotham-Book'" font-size="18">Select Category</text>
</g>
<text transform="matrix(1 0 0 1 565.6685 -676.0503)" font-family="'Gotham-Book'" font-size="50">Staff Allocation | Status</text>
<text transform="matrix(1 0 0 1 371.8232 -313.3418)" fill="#4C2682" font-family="'Gotham-Bold'" font-size="19.9669">RULES OF ENGAGEMENT:</text>
<g>
	<g>
		<text transform="matrix(1 0 0 1 518.8091 -390.9473)" font-family="'Gotham-Book'" font-size="18">DESIGN</text>
	</g>
	<g>
		<text transform="matrix(1 0 0 1 679.4365 -390.9492)" font-family="'Gotham-Book'" font-size="18">MOTION DESIGN</text>
	</g>
	<g>
		<text transform="matrix(1 0 0 1 887.0576 -391.6074)" font-family="'Gotham-Book'" font-size="18">DEVELOPMENT</text>
	</g>
	<g>
		<text transform="matrix(1 0 0 1 1099.5439 -391.9473)" font-family="'Gotham-Book'" font-size="18">QA ANALYST</text>
	</g>
	<g>
		<path fill="#ED2F3D" d="M538.524-519.903c-0.104-0.128-0.23-0.229-0.368-0.301c-0.412-0.219-0.929-0.185-1.316,0.128
			c-2.2,1.789-5.446,1.456-7.234-0.741c-0.42-0.516-1.175-0.592-1.687-0.172c-0.515,0.414-0.589,1.171-0.174,1.683
			c2.625,3.223,7.381,3.713,10.605,1.091C538.866-518.636,538.942-519.39,538.524-519.903z"/>
		<path fill="#ED2F3D" d="M554.423-560.526c-32.398,0-58.661,26.264-58.661,58.661c0,32.396,26.263,58.66,58.661,58.66
			c32.397,0,58.659-26.264,58.659-58.66C613.082-534.263,586.82-560.526,554.423-560.526z M522.277-523.174
			c-5.421-11.481,8.169-25.226,8.169-25.226c-1.128,2.069-0.052,8.458,9.404,18.168c9.455,9.71-1.518,15.111-3.065,15.787
			C535.236-513.771,527.697-511.69,522.277-523.174z M577.693-456.493l-36.559-47.114l-5.007-8.575
			c1.525-0.159,2.66-0.659,3.15-0.936c0.695-0.394,3.374-2.043,4.95-4.552l5.697,6.446l33.547,50.544
			C583.473-460.68,586.074-451.592,577.693-456.493z"/>
	</g>
	<path fill="#80BC40" d="M958.922-561.186c-32.398,0-58.66,26.264-58.66,58.661c0,32.396,26.262,58.66,58.66,58.66
		s58.66-26.264,58.66-58.66C1017.582-534.922,991.32-561.186,958.922-561.186z M943.783-509.846l-18.934,7.636l18.934,7.581v8.444
		l-30.65-12.776v-6.5l30.65-12.809V-509.846z M956.002-474.874h-9.748l15.357-53.559h9.65L956.002-474.874z M973.732-486.185v-8.424
		l18.918-7.628l-18.918-7.589v-8.444l30.652,12.744v6.532L973.732-486.185z"/>
	<g>
		<path fill="#F5871F" d="M1170.927-536.917c-13.369,0-24.203,10.835-24.203,24.203c0,13.367,10.834,24.204,24.203,24.204
			c13.367,0,24.203-10.837,24.203-24.204C1195.13-526.082,1184.294-536.917,1170.927-536.917z M1186.731-518.841
			c-1.354,0.549-2.896-0.104-3.445-1.458c-2.354-5.808-8.994-8.617-14.803-6.265c-1.016,0.411-2.137,0.147-2.865-0.581
			c-0.244-0.243-0.443-0.538-0.58-0.878c-0.549-1.354,0.104-2.896,1.457-3.444c8.514-3.451,18.246,0.667,21.695,9.18
			C1188.739-520.933,1188.087-519.39,1186.731-518.841z"/>
		<path fill="#F5871F" d="M1161.94-561.526c-32.398,0-58.66,26.264-58.66,58.661c0,32.396,26.262,58.66,58.66,58.66
			s58.66-26.264,58.66-58.66C1220.601-535.263,1194.339-561.526,1161.94-561.526z M1137.325-467.996
			c-3.25,3.25-7.793,4.023-10.674,1.142l-0.496-0.496c-2.881-2.882-2.107-7.423,1.141-10.674c0,0,9.924-9.924,14.881-14.879
			l10.027,10.028C1147.269-477.94,1137.325-467.996,1137.325-467.996z M1170.927-480.398c-17.85,0-32.316-14.468-32.316-32.316
			c0-17.848,14.467-32.315,32.316-32.315c17.846,0,32.314,14.468,32.314,32.315C1203.241-494.866,1188.772-480.398,1170.927-480.398
			z"/>
	</g>
	<path fill="#00B4DC" d="M756.422-560.526c-32.396,0-58.66,26.264-58.66,58.66s26.264,58.66,58.66,58.66s58.66-26.264,58.66-58.66
		S788.818-560.526,756.422-560.526z M719.533-487.157l14.494-14.496l-14.922-14.922l7.576-7.577l14.924,14.923l7.148,7.148
		l0.429,0.43L727.11-479.58L719.533-487.157z M749.37-479.58l-7.577-7.577l14.495-14.496l-14.923-14.922l7.578-7.577l14.922,14.923
		l7.148,7.148l0.428,0.43L749.37-479.58z M771.668-479.58l-7.578-7.577l14.494-14.496l-14.922-14.922l7.576-7.577l14.922,14.923
		l7.15,7.148l0.428,0.43L771.668-479.58z"/>
</g>
<rect x="640.239" y="-314.896" fill="#4C2682" width="707" height="3"/>
<rect x="-5.761" y="-759.896" fill="#81BF40" width="36" height="36"/>
<rect x="-41.761" y="-759.896" fill="#F6881F" width="36" height="36"/>
<rect x="-77.761" y="-759.896" fill="#BB141A" width="36" height="36"/>
<rect x="-5.761" y="-723.896" fill="#01B4DD" width="36" height="36"/>
<rect x="-41.761" y="-723.896" fill="#4C2682" width="36" height="36"/>
<rect x="-77.761" y="-723.896" fill="#EE2C3E" width="36" height="36"/>
<rect x="374.239" y="-276.822" fill="none" width="970" height="133.493"/>
<text transform="matrix(1 0 0 1 374.2393 -264.4121)"><tspan x="0" y="0" font-family="'Gotham-Book'" font-size="17">• Usage is based upon a first come first served model.</tspan><tspan x="0" y="25" font-family="'Gotham-Book'" font-size="17">• Minimum time a resource can be reserved is an 8 h ours period.</tspan><tspan x="0" y="50" font-family="'Gotham-Book'" font-size="17">• Holiday and OT rules apply.</tspan><tspan x="0" y="75" font-family="'Gotham-Book'" font-size="17">• Book Commitment: Pay per what is originally booked at a given time.</tspan></text>
<g>
	<rect x="219.239" y="-59.896" fill="#4C2682" width="1280" height="182"/>
	<circle fill="#FFFFFF" cx="387.687" cy="37.518" r="13.448"/>
	<text transform="matrix(1 0 0 1 381.4038 41.4199)" fill="#4C2682" font-family="'Gotham-Bold'" font-size="11.5498">¿?</text>
	<text transform="matrix(1 0 0 1 122.4038 31.1035)" fill="#4C2682" font-family="'Gotham-Bold'" font-size="11.5498">¿?</text>
	<circle fill="#FFFFFF" cx="725.7" cy="37.346" r="13.449"/>
	<text transform="matrix(1 0 0 1 716.3213 42.248)" fill="#4C2682" font-family="'Gotham-Bold'" font-size="11.5498">MU</text>
	<text transform="matrix(1 0 0 1 146.9878 49.248)" fill="#4C2682" font-family="'Gotham-Bold'" font-size="11.5498">MU</text>
	<circle fill="#FFFFFF" cx="1085.04" cy="38.57" r="13.449"/>
	<g id="yDeL4F_1_">
		<g>
			<path fill-rule="evenodd" clip-rule="evenodd" fill="#4C2682" d="M1087.828,41.537c-0.017,0.18-0.033,0.35-0.049,0.523
				c-0.06,0.668-0.12,1.338-0.18,2.008c-0.057,0.648-0.113,1.297-0.171,1.945c-0.036,0.418-0.073,0.836-0.111,1.254
				c-0.011,0.117-0.066,0.168-0.185,0.166c-1.201-0.01-2.403-0.021-3.604-0.035c-0.118-0.002-0.17-0.047-0.18-0.172
				c-0.034-0.406-0.064-0.812-0.097-1.219c-0.047-0.58-0.092-1.158-0.139-1.736c-0.039-0.492-0.078-0.982-0.116-1.475
				c-0.032-0.4-0.062-0.801-0.095-1.201c-0.001-0.016-0.008-0.033-0.014-0.059c-0.035,0-0.067,0-0.101,0c-0.322,0-0.646,0-0.969,0
				c-0.138,0-0.191-0.055-0.191-0.195c0-1.865,0-3.73,0-5.596c0-0.141,0.064-0.203,0.203-0.215c0.667-0.057,1.334-0.117,2-0.176
				c0.438-0.039,0.88-0.07,1.317-0.117c0.285-0.029,0.563,0.029,0.843,0.049c0.522,0.037,1.043,0.09,1.563,0.135
				c0.431,0.037,0.861,0.074,1.292,0.111c0.099,0.01,0.164,0.08,0.171,0.18c0.002,0.025,0.001,0.051,0.001,0.074
				c0,1.842,0,3.684,0,5.523c0,0.184-0.043,0.227-0.225,0.227c-0.286,0-0.572,0-0.858,0
				C1087.903,41.537,1087.87,41.537,1087.828,41.537z"/>
			<path fill-rule="evenodd" clip-rule="evenodd" fill="#4C2682" d="M1081.092,36.041c0,0.043,0,0.082,0,0.121
				c0,1.713-0.001,3.426,0.001,5.139c0,0.188,0.035,0.367,0.16,0.521c0.024,0.029,0.032,0.084,0.028,0.125
				c-0.073,0.861-0.15,1.721-0.227,2.582c-0.041,0.459-0.083,0.92-0.125,1.381c-0.01,0.102-0.054,0.135-0.177,0.135
				c-0.909-0.01-1.819-0.02-2.729-0.029c-0.082-0.002-0.163-0.002-0.246-0.004c-0.106-0.002-0.143-0.033-0.151-0.139
				c-0.042-0.512-0.084-1.023-0.125-1.537c-0.051-0.648-0.102-1.297-0.153-1.945c-0.028-0.357-0.057-0.715-0.086-1.074
				c-0.005-0.057-0.01-0.113-0.017-0.186c-0.035,0-0.068,0-0.101,0c-0.262,0-0.522,0.002-0.784,0c-0.128,0-0.173-0.043-0.173-0.168
				c-0.001-1.549-0.001-3.098,0-4.646c0-0.127,0.045-0.172,0.175-0.184c0.951-0.086,1.901-0.174,2.854-0.25
				c0.19-0.016,0.387,0.021,0.582,0.039c0.402,0.033,0.806,0.07,1.209,0.105C1081.032,36.029,1081.059,36.035,1081.092,36.041z"/>
			<path fill-rule="evenodd" clip-rule="evenodd" fill="#4C2682" d="M1088.869,42.078c0.067-0.016,0.132-0.029,0.195-0.047
				c0.233-0.064,0.387-0.213,0.445-0.445c0.029-0.117,0.042-0.24,0.043-0.361c0.002-1.703,0.002-3.408,0.002-5.111
				c0-0.039,0-0.078,0-0.125c0.189-0.018,0.374-0.035,0.559-0.053c0.142-0.012,0.285-0.016,0.427-0.037
				c0.339-0.049,0.673,0.018,1.009,0.043c0.54,0.041,1.078,0.094,1.618,0.141c0.193,0.018,0.388,0.033,0.582,0.053
				c0.086,0.008,0.137,0.061,0.144,0.148c0.002,0.027,0,0.055,0,0.082c0,1.521,0,3.043,0,4.564c0,0.168-0.033,0.201-0.203,0.201
				c-0.237,0.002-0.475,0.002-0.712,0c-0.062-0.002-0.083,0.018-0.089,0.08c-0.091,1.045-0.184,2.092-0.276,3.137
				c-0.047,0.521-0.095,1.041-0.142,1.562c-0.009,0.102-0.055,0.135-0.176,0.135c-0.95-0.01-1.899-0.021-2.849-0.031
				c-0.271-0.002-0.271-0.004-0.291-0.277c-0.096-1.199-0.19-2.4-0.286-3.602C1088.868,42.117,1088.869,42.1,1088.869,42.078z"/>
			<path fill-rule="evenodd" clip-rule="evenodd" fill="#4C2682" d="M1087.284,32.869c-0.002,1.084-0.888,1.967-1.971,1.965
				c-1.09,0-1.973-0.889-1.969-1.977c0.002-1.084,0.89-1.965,1.975-1.963C1086.403,30.896,1087.285,31.783,1087.284,32.869z"/>
			<path fill-rule="evenodd" clip-rule="evenodd" fill="#4C2682" d="M1080.904,33.904c0.002,0.898-0.735,1.639-1.637,1.641
				c-0.907,0.004-1.645-0.73-1.645-1.637c-0.002-0.904,0.73-1.639,1.633-1.643C1080.162,32.264,1080.902,33.002,1080.904,33.904z"/>
			<path fill-rule="evenodd" clip-rule="evenodd" fill="#4C2682" d="M1092.443,33.865c0.019,0.869-0.643,1.629-1.569,1.678
				c-0.889,0.047-1.665-0.656-1.708-1.543c-0.046-0.924,0.65-1.691,1.573-1.732C1091.646,32.227,1092.398,32.932,1092.443,33.865z"
				/>
		</g>
	</g>
	<g id="yDeL4F_2_">
		<g>
			<path fill-rule="evenodd" clip-rule="evenodd" fill="#4C2682" d="M11.641,10.643c-0.017,0.18-0.033,0.35-0.049,0.523
				c-0.06,0.668-0.12,1.338-0.18,2.008c-0.057,0.648-0.113,1.297-0.171,1.945c-0.036,0.418-0.073,0.836-0.111,1.254
				c-0.011,0.117-0.066,0.168-0.185,0.166c-1.201-0.01-2.403-0.021-3.604-0.035c-0.118-0.002-0.17-0.047-0.18-0.172
				c-0.034-0.406-0.064-0.812-0.097-1.219c-0.047-0.58-0.092-1.158-0.139-1.736c-0.039-0.492-0.078-0.982-0.116-1.475
				c-0.032-0.4-0.062-0.801-0.095-1.201c-0.001-0.016-0.008-0.033-0.014-0.059c-0.035,0-0.067,0-0.101,0c-0.322,0-0.646,0-0.969,0
				c-0.138,0-0.191-0.055-0.191-0.195c0-1.865,0-3.73,0-5.596c0-0.141,0.064-0.203,0.203-0.215c0.667-0.057,1.334-0.117,2-0.176
				c0.438-0.039,0.88-0.07,1.317-0.117c0.285-0.029,0.563,0.029,0.843,0.049c0.522,0.037,1.043,0.09,1.563,0.135
				c0.431,0.037,0.861,0.074,1.292,0.111c0.099,0.01,0.164,0.08,0.171,0.18c0.002,0.025,0.001,0.051,0.001,0.074
				c0,1.842,0,3.684,0,5.523c0,0.184-0.043,0.227-0.225,0.227c-0.286,0-0.572,0-0.858,0C11.716,10.643,11.683,10.643,11.641,10.643z
				"/>
			<path fill-rule="evenodd" clip-rule="evenodd" fill="#4C2682" d="M4.905,5.146c0,0.043,0,0.082,0,0.121
				c0,1.713-0.001,3.426,0.001,5.139c0,0.188,0.035,0.367,0.16,0.521c0.024,0.029,0.032,0.084,0.028,0.125
				c-0.073,0.861-0.15,1.721-0.227,2.582c-0.041,0.459-0.083,0.92-0.125,1.381c-0.01,0.102-0.054,0.135-0.177,0.135
				c-0.909-0.01-1.819-0.02-2.729-0.029c-0.082-0.002-0.163-0.002-0.246-0.004c-0.106-0.002-0.143-0.033-0.151-0.139
				c-0.042-0.512-0.084-1.023-0.125-1.537c-0.051-0.648-0.102-1.297-0.153-1.945c-0.028-0.357-0.057-0.715-0.086-1.074
				c-0.005-0.057-0.01-0.113-0.017-0.186c-0.035,0-0.068,0-0.101,0c-0.262,0-0.522,0.002-0.784,0C0.045,10.236,0,10.193,0,10.068
				C0,8.52,0,6.971,0,5.422C0,5.295,0.045,5.25,0.175,5.238c0.951-0.086,1.901-0.174,2.854-0.25c0.19-0.016,0.387,0.021,0.582,0.039
				c0.402,0.033,0.806,0.07,1.209,0.105C4.845,5.135,4.872,5.141,4.905,5.146z"/>
			<path fill-rule="evenodd" clip-rule="evenodd" fill="#4C2682" d="M12.682,11.184c0.067-0.016,0.132-0.029,0.195-0.047
				c0.233-0.064,0.387-0.213,0.445-0.445c0.029-0.117,0.042-0.24,0.043-0.361c0.002-1.703,0.002-3.408,0.002-5.111
				c0-0.039,0-0.078,0-0.125c0.189-0.018,0.374-0.035,0.559-0.053c0.142-0.012,0.285-0.016,0.427-0.037
				c0.339-0.049,0.673,0.018,1.009,0.043c0.54,0.041,1.078,0.094,1.618,0.141c0.193,0.018,0.388,0.033,0.582,0.053
				c0.086,0.008,0.137,0.061,0.144,0.148c0.002,0.027,0,0.055,0,0.082c0,1.521,0,3.043,0,4.564c0,0.168-0.033,0.201-0.203,0.201
				c-0.237,0.002-0.475,0.002-0.712,0c-0.062-0.002-0.083,0.018-0.089,0.08c-0.091,1.045-0.184,2.092-0.276,3.137
				c-0.047,0.521-0.095,1.041-0.142,1.562c-0.009,0.102-0.055,0.135-0.176,0.135c-0.95-0.01-1.899-0.021-2.849-0.031
				c-0.271-0.002-0.271-0.004-0.291-0.277c-0.096-1.199-0.19-2.4-0.286-3.602C12.681,11.223,12.682,11.205,12.682,11.184z"/>
			<path fill-rule="evenodd" clip-rule="evenodd" fill="#4C2682" d="M11.097,1.975c-0.002,1.084-0.888,1.967-1.971,1.965
				c-1.09,0-1.973-0.889-1.969-1.977C7.16,0.879,8.047-0.002,9.132,0C10.216,0.002,11.098,0.889,11.097,1.975z"/>
			<path fill-rule="evenodd" clip-rule="evenodd" fill="#4C2682" d="M4.717,3.01C4.719,3.908,3.982,4.648,3.081,4.65
				C2.173,4.654,1.436,3.92,1.436,3.014c-0.002-0.904,0.73-1.639,1.633-1.643C3.975,1.369,4.715,2.107,4.717,3.01z"/>
			<path fill-rule="evenodd" clip-rule="evenodd" fill="#4C2682" d="M16.256,2.971c0.019,0.869-0.643,1.629-1.569,1.678
				c-0.889,0.047-1.665-0.656-1.708-1.543c-0.046-0.924,0.65-1.691,1.573-1.732C15.458,1.332,16.211,2.037,16.256,2.971z"/>
		</g>
	</g>
	<g>
		<text transform="matrix(1 0 0 1 374.2393 -12.1719)" fill="#FFFFFF" font-family="'Gotham-Book'" font-size="18">Staff Allocation | Status</text>
	</g>
	<text transform="matrix(1 0 0 1 420.2388 29.5059)"><tspan x="0" y="0" fill="#FFFFFF" font-family="'Gotham-Bold'" font-size="16">Questions or issues:</tspan><tspan x="0" y="25" fill="#FFFFFF" font-family="'Gotham-Book'" font-size="16">adrian.diaz@prodigious.com</tspan></text>
	<text transform="matrix(1 0 0 1 757.082 29.5059)"><tspan x="0" y="0" fill="#FFFFFF" font-family="'Gotham-Bold'" font-size="16">MU Booking:</tspan><tspan x="0" y="25" fill="#FFFFFF" font-family="'Gotham-Book'" font-size="16">adrian.diaz@prodigious.com</tspan></text>
	<text transform="matrix(1 0 0 1 1117.5713 29.5059)"><tspan x="0" y="0" fill="#FFFFFF" font-family="'Gotham-Bold'" font-size="16">Unit based and project work:</tspan><tspan x="0" y="25" fill="#FFFFFF" font-family="'Gotham-Book'" font-size="16">ned.elmore@prodigious.com</tspan></text>
	<line fill="#4C2682" stroke="#FFFFFF" stroke-miterlimit="10" x1="675.739" y1="11.104" x2="675.739" y2="62.104"/>
	<line fill="#4C2682" stroke="#FFFFFF" stroke-miterlimit="10" x1="1028.739" y1="11.104" x2="1028.739" y2="62.104"/>
</g>
<g>
	<text transform="matrix(1 0 0 1 708.4692 -893.3691)" fill="#ED2F3D" font-family="'Gotham-Book'" font-size="18">DESIGN</text>
	<g>
		<text transform="matrix(1 0 0 1 622.9873 -893.3691)" font-family="'Gotham-Book'" font-size="18">ALL</text>
	</g>
	<g>
		<text transform="matrix(1 0 0 1 831.0967 -893.3691)" font-family="'Gotham-Book'" font-size="18">MOTION DESIGN</text>
	</g>
	<g>
		<text transform="matrix(1 0 0 1 1036.2178 -893.3691)" font-family="'Gotham-Book'" font-size="18">DEVELOPMENT</text>
	</g>
	<g>
		<text transform="matrix(1 0 0 1 1219.6855 -893.3691)" font-family="'Gotham-Book'" font-size="18">QA ANALYST</text>
	</g>
	<rect x="180.239" y="-988.896" width="39" height="39"/>
</g>
<rect x="218.739" y="-949.396" fill="#FFFFFF" stroke="#000000" stroke-miterlimit="10" width="90" height="100"/>
<rect x="218.739" y="-849.396" fill="#FFFFFF" stroke="#000000" stroke-miterlimit="10" width="90" height="501"/>
<rect x="373.739" y="-1078.396" fill="#FFFFFF" stroke="#000000" stroke-miterlimit="10" width="81" height="81"/>
<rect x="454.739" y="-1078.396" fill="#FFFFFF" stroke="#000000" stroke-miterlimit="10" width="81" height="81"/>
<rect x="535.739" y="-1078.396" fill="#FFFFFF" stroke="#000000" stroke-miterlimit="10" width="81" height="81"/>
<rect x="616.739" y="-1078.396" fill="#FFFFFF" stroke="#000000" stroke-miterlimit="10" width="81" height="81"/>
<rect x="697.739" y="-1078.396" fill="#FFFFFF" stroke="#000000" stroke-miterlimit="10" width="82" height="81"/>
<rect x="779.739" y="-1078.396" fill="#FFFFFF" stroke="#000000" stroke-miterlimit="10" width="81" height="81"/>
<rect x="860.739" y="-1078.396" fill="#FFFFFF" stroke="#000000" stroke-miterlimit="10" width="81" height="81"/>
<rect x="941.739" y="-1078.396" fill="#FFFFFF" stroke="#000000" stroke-miterlimit="10" width="81" height="81"/>
<rect x="1022.739" y="-1078.396" fill="#FFFFFF" stroke="#000000" stroke-miterlimit="10" width="81" height="81"/>
<rect x="1103.739" y="-1078.396" fill="#FFFFFF" stroke="#000000" stroke-miterlimit="10" width="81" height="81"/>
<rect x="1184.739" y="-1078.396" fill="#FFFFFF" stroke="#000000" stroke-miterlimit="10" width="81" height="81"/>
<rect x="1265.739" y="-1078.396" fill="#FFFFFF" stroke="#000000" stroke-miterlimit="10" width="81" height="81"/>
<rect x="362.739" y="-949.396" fill="#FFFFFF" stroke="#000000" stroke-miterlimit="10" width="230" height="28"/>
</svg>
