<?xml version="1.0" encoding="utf-8"?>
<!-- Generator: Adobe Illustrator 16.0.0, SVG Export Plug-In . SVG Version: 6.00 Build 0)  -->
<!DOCTYPE svg PUBLIC "-//W3C//DTD SVG 1.1//EN" "http://www.w3.org/Graphics/SVG/1.1/DTD/svg11.dtd">
<svg version="1.1" id="Layer_1" xmlns="http://www.w3.org/2000/svg" xmlns:xlink="http://www.w3.org/1999/xlink" x="0px" y="0px"
	 width="181.047px" height="73.5px" viewBox="0 -10.447 181.047 73.5" enable-background="new 0 -10.447 181.047 73.5"
	 xml:space="preserve">
<g id="flex_x5F_logo" display="none">
	<g display="inline">
		<g>
			<g>
				<path fill="#231F20" d="M62.797,18.727c0-1.358-0.233-1.28-2.677-1.28h-4.422v9.426c0,2.561,0.039,2.638,1.591,2.638h1.008v1.28
					h-7.914v-1.28h0.776c0.698,0,1.474,0.078,1.513-0.697c0.039-0.582,0.077-1.319,0.077-1.94V10.542c0-2.638,0-2.716-1.59-2.716
					h-0.776v-1.28H66.87v4.384h-1.241v-0.776c0-1.552-0.116-1.591-2.677-1.591h-7.254v6.865h4.422c2.599,0,2.677-0.038,2.677-1.59
					v-0.775h1.241v6.75h-1.241V18.727z"/>
				<path fill="#231F20" d="M75.018,30.792h-7.603v-1.279h0.582c1.552,0,1.358-0.155,1.358-2.717V9.223
					c0-1.01-0.194-1.396-1.047-1.396h-0.892v-1.28h4.577v20.987c0,1.28,0,1.979,1.862,1.979h1.164L75.018,30.792L75.018,30.792z"/>
				<path fill="#231F20" d="M90.186,29.666c-2.017,1.125-3.84,1.707-6.517,1.707c-4.694,0-7.487-3.375-7.487-8.379
					c0-5.276,3.375-8.379,8.03-8.379c1.746,0,3.259,0.427,4.539,1.396c2.483,1.823,2.521,4.346,2.599,7.759H79.169
					c0.039,3.802,1.823,5.779,4.888,5.779c1.784,0,3.491-0.658,5.043-1.9L90.186,29.666z M88.557,22.025
					c-0.039-3.569-1.319-5.586-4.5-5.586c-2.909,0-4.81,1.9-4.888,5.586H88.557z"/>
				<path fill="#231F20" d="M92.204,29.51c1.474,0,2.328-0.736,3.375-2.017l3.84-4.771l-3.957-4.85
					c-1.125-1.357-1.552-1.396-2.366-1.396h-0.621v-1.28h7.564v1.28h-0.543c-0.698,0-1.125,0.039-1.125,0.465
					c0,0.194,0.427,0.699,0.776,1.125l2.017,2.599l2.095-2.327c0.465-0.543,0.931-1.048,0.931-1.357
					c0-0.389-0.504-0.504-1.086-0.504h-0.543v-1.28h6.944v1.28h-0.504c-1.319,0-2.172,0.582-3.22,1.746l-3.414,3.84l4.422,5.509
					c1.319,1.668,2.056,1.94,2.909,1.94h0.698v1.279h-7.681v-1.279h0.582c0.66,0,1.086-0.116,1.086-0.543
					c0-0.194-0.543-0.854-1.241-1.746l-2.444-3.026l-3.065,3.801c-0.233,0.272-0.582,0.737-0.582,0.97
					c0,0.389,0.582,0.544,1.125,0.544h0.582v1.279H91.7v-1.279h0.504V29.51z"/>
			</g>
			<g>
				<path fill="#231F20" d="M126.587,6.547c5.702,0,9.038,0.971,9.038,5.936c0,4.927-3.452,5.896-9.038,5.896h-3.957v8.495
					c0,2.6,0,2.638,1.591,2.638h0.776v1.28h-7.681v-1.28h0.775c0.698,0,1.475,0.078,1.514-0.697c0.039-0.582,0.076-1.319,0.076-1.94
					V9.999c0-1.629,0.039-2.172-1.668-2.172h-0.697v-1.28H126.587z M122.63,8.564v7.914h3.181c3.686,0,6.828-0.155,6.828-3.879
					c0-3.182-1.553-4.034-6.945-4.034L122.63,8.564L122.63,8.564z"/>
				<path fill="#231F20" d="M142.764,14.615c4.733,0,7.643,3.414,7.643,8.224c0,4.928-3.026,8.496-7.952,8.496
					c-5.12,0-7.797-3.607-7.797-8.379C134.657,17.835,138.109,14.615,142.764,14.615z M142.531,29.51
					c3.259,0,4.888-2.25,4.888-6.788c0-4.229-1.707-6.284-4.731-6.284c-3.26,0-5.043,2.327-5.043,6.904
					C137.643,27.145,139.273,29.51,142.531,29.51z"/>
				<path fill="#231F20" d="M161.346,14.615c4.733,0,7.643,3.414,7.643,8.224c0,4.928-3.026,8.496-7.952,8.496
					c-5.12,0-7.797-3.607-7.797-8.379C153.239,17.835,156.691,14.615,161.346,14.615z M161.114,29.51
					c3.259,0,4.888-2.25,4.888-6.788c0-4.229-1.707-6.284-4.732-6.284c-3.259,0-5.043,2.327-5.043,6.904
					C156.227,27.145,157.855,29.51,161.114,29.51z"/>
				<path fill="#231F20" d="M179.075,30.792h-7.603v-1.279h0.582c1.551,0,1.357-0.155,1.357-2.717V9.223
					c0-1.01-0.194-1.396-1.047-1.396h-0.893v-1.28h4.578v20.987c0,1.28,0,1.979,1.862,1.979h1.164v1.279H179.075z"/>
			</g>
		</g>
		<g>
			<polygon fill="#4D2681" points="25.686,18.291 17.134,33 34.237,33 			"/>
			<polygon fill="#ED2F3D" points="25.686,18 8.758,18 17.138,32.711 			"/>
			<polygon fill="#F5871F" points="25.686,16.709 17.134,2 34.237,2 			"/>
			<polygon fill="#B9131A" points="25.686,18 8.758,18 17.138,3.289 			"/>
			<polygon fill="#00B4DC" points="42.447,18 25.686,18 34.237,32.711 			"/>
			<polygon fill="#80BC40" points="42.447,18 25.686,18 34.237,3.291 			"/>
		</g>
	</g>
	<g display="inline">
		<text transform="matrix(1 0 0 1 2.1851 59.3074)" font-family="'Gotham-Book'" font-size="18">Staff Allocation   Status</text>
		<line fill="none" stroke="#000000" stroke-miterlimit="10" x1="147.852" y1="44.675" x2="147.852" y2="63.008"/>
	</g>
</g>
<g id="prodigious_x5F_logo">
	<path fill="#00B4DC" stroke="#FFFFFF" stroke-width="4" stroke-miterlimit="10" d="M31.264,17.834
		c-0.958,0.961-1.839,1.997-2.635,3.108c-0.759,1.049-1.433,2.156-2.019,3.304c1.385,0.703,2.701,1.536,3.943,2.492
		c1.2,0.924,1.663,2.457,1.279,3.835c1.183-3.952,3.687-7.404,7.066-9.729c-0.6,0.396-1.299,0.606-2.01,0.606
		c-0.703,0-1.417-0.206-2.04-0.638C33.56,19.927,32.363,18.93,31.264,17.834"/>
	<path fill="#80BC40" stroke="#FFFFFF" stroke-width="4" stroke-miterlimit="10" d="M31.83,5.104
		c0.377,1.377-0.082,2.913-1.285,3.835c-1.241,0.953-2.559,1.783-3.94,2.485c0.616,1.21,1.331,2.369,2.137,3.471
		c0.77,1.047,1.61,2.032,2.521,2.938c1.099-1.096,2.296-2.093,3.589-2.976c0.62-0.431,1.333-0.635,2.037-0.635
		c0.708,0,1.408,0.208,2.006,0.604C35.506,12.484,32.999,9.035,31.83,5.104"/>
	<path fill="#F5871F" stroke="#FFFFFF" stroke-width="4" stroke-miterlimit="10" d="M26.103,3.242
		c-3.162,2.411-7.049,3.723-11.001,3.723c-0.143,0-0.285,0-0.427-0.005c1.428,0.061,2.742,0.972,3.249,2.405
		c0.523,1.471,0.906,2.981,1.147,4.512c1.339-0.211,2.663-0.53,3.964-0.958c1.229-0.409,2.421-0.909,3.571-1.492
		c-0.704-1.385-1.281-2.829-1.722-4.335C24.451,5.64,24.982,4.13,26.103,3.242"/>
	<path fill="#ED2F3D" stroke="#FFFFFF" stroke-width="4" stroke-miterlimit="10" d="M11.13,11.826
		c1.364,3.892,1.364,8.157,0.008,12.021c0.499-1.339,1.77-2.31,3.291-2.349c0.224-0.005,0.451-0.008,0.674-0.008
		c1.337,0,2.663,0.107,3.972,0.312c0.215-1.341,0.315-2.699,0.31-4.063c-0.004-1.299-0.111-2.585-0.312-3.858
		c-1.302,0.203-2.624,0.311-3.952,0.311c-0.234,0-0.466,0-0.703-0.011C12.905,14.137,11.629,13.167,11.13,11.826"/>
	<path fill="#B31E8D" stroke="#FFFFFF" stroke-width="4" stroke-miterlimit="10" d="M19.075,21.802L19.075,21.802
		c-0.239,1.533-0.625,3.041-1.149,4.518c-0.509,1.432-1.824,2.338-3.252,2.397c0.137,0,0.273-0.003,0.411-0.003
		c3.974,0,7.87,1.312,11.015,3.719c-1.115-0.889-1.647-2.403-1.214-3.859c0.445-1.497,1.023-2.947,1.725-4.327
		c-1.207-0.614-2.467-1.135-3.765-1.551C21.607,22.302,20.352,22,19.075,21.802"/>
	<path fill="#D26226" stroke="#FFFFFF" stroke-width="4" stroke-miterlimit="10" d="M31.83,5.106
		c-0.377-1.264-1.289-2.114-2.366-2.465c-1.147-0.375-2.399-0.134-3.361,0.599c-1.121,0.891-1.652,2.4-1.22,3.853
		c0.44,1.506,1.018,2.95,1.722,4.335c1.381-0.705,2.698-1.535,3.94-2.488C31.748,8.014,32.213,6.481,31.83,5.106 M29.81,6.53
		c-0.263,0.802-1.125,1.239-1.929,0.979c-0.805-0.265-1.238-1.127-0.978-1.932c0.263-0.802,1.129-1.239,1.929-0.976
		C29.632,4.862,30.072,5.726,29.81,6.53"/>
	<path fill="#008255" stroke="#FFFFFF" stroke-width="4" stroke-miterlimit="10" d="M38.896,14.828
		c-1.191-0.789-2.791-0.828-4.042,0.031c-1.293,0.883-2.492,1.88-3.592,2.976c1.099,1.097,2.296,2.093,3.586,2.979
		c0.624,0.432,1.337,0.638,2.042,0.638c0.709,0,1.408-0.211,2.008-0.606c1.004-0.692,1.606-1.771,1.61-3.002
		C40.509,16.605,39.893,15.517,38.896,14.828 M38.345,18.302c-0.262,0.803-1.125,1.242-1.927,0.979
		c-0.803-0.26-1.241-1.125-0.979-1.932c0.262-0.803,1.127-1.239,1.931-0.977C38.17,16.64,38.607,17.501,38.345,18.302"/>
	<path fill="#4D2681" stroke="#FFFFFF" stroke-width="4" stroke-miterlimit="10" d="M30.551,26.738
		c-1.239-0.955-2.555-1.788-3.939-2.492c-0.703,1.383-1.283,2.83-1.726,4.327c-0.432,1.455,0.096,2.968,1.217,3.859
		c0.955,0.729,2.136,0.939,3.186,0.655c1.173-0.312,2.164-1.255,2.541-2.515C32.215,29.201,31.754,27.662,30.551,26.738
		 M29.803,30.06c-0.262,0.805-1.126,1.241-1.929,0.976c-0.802-0.26-1.239-1.122-0.975-1.923c0.264-0.805,1.126-1.242,1.925-0.982
		C29.624,28.394,30.065,29.258,29.803,30.06"/>
	<path fill="#972247" stroke="#FFFFFF" stroke-width="4" stroke-miterlimit="10" d="M14.429,21.497
		c-1.521,0.039-2.792,1.01-3.291,2.348c-0.423,1.19-0.262,2.413,0.484,3.422c0.724,0.974,1.822,1.479,3.051,1.455
		c1.428-0.062,2.744-0.975,3.252-2.403c0.525-1.477,0.91-2.986,1.149-4.518C17.545,21.557,15.994,21.456,14.429,21.497
		 M15.966,25.569c-0.263,0.802-1.125,1.242-1.925,0.98c-0.806-0.265-1.241-1.13-0.979-1.932c0.263-0.804,1.125-1.239,1.925-0.979
		C15.791,23.903,16.227,24.77,15.966,25.569"/>
	<path fill="#B9131A" stroke="#FFFFFF" stroke-width="4" stroke-miterlimit="10" d="M17.925,9.365
		c-0.509-1.435-1.822-2.346-3.252-2.405c-1.252-0.034-2.343,0.497-3.049,1.445c-0.737,0.989-0.916,2.218-0.495,3.426
		c0.499,1.336,1.773,2.308,3.29,2.349c0.233,0.011,0.466,0.013,0.703,0.013c1.325,0,2.648-0.109,3.948-0.315
		C18.83,12.346,18.446,10.839,17.925,9.365 M15.975,11.029c-0.262,0.802-1.124,1.239-1.925,0.979
		c-0.806-0.26-1.242-1.125-0.979-1.934C13.336,9.277,14.196,8.84,15,9.1C15.804,9.365,16.238,10.224,15.975,11.029"/>
	<path fill="#00B4DC" d="M31.264,17.834c-0.958,0.961-1.839,1.997-2.635,3.108c-0.759,1.049-1.433,2.156-2.019,3.304
		c1.385,0.703,2.701,1.536,3.943,2.492c1.2,0.924,1.663,2.457,1.279,3.835c1.183-3.952,3.687-7.404,7.066-9.729
		c-0.6,0.396-1.299,0.606-2.01,0.606c-0.703,0-1.417-0.206-2.04-0.638C33.56,19.927,32.363,18.93,31.264,17.834"/>
	<path fill="#80BC40" d="M31.83,5.104c0.377,1.377-0.082,2.913-1.285,3.835c-1.241,0.953-2.559,1.783-3.94,2.485
		c0.616,1.21,1.331,2.369,2.137,3.471c0.77,1.047,1.61,2.032,2.521,2.938c1.099-1.096,2.296-2.093,3.589-2.976
		c0.62-0.431,1.333-0.635,2.037-0.635c0.708,0,1.408,0.208,2.006,0.604C35.506,12.484,32.999,9.035,31.83,5.104"/>
	<path fill="#F5871F" d="M26.103,3.242c-3.162,2.411-7.049,3.723-11.001,3.723c-0.143,0-0.285,0-0.427-0.005
		c1.428,0.061,2.742,0.972,3.249,2.405c0.523,1.471,0.906,2.981,1.147,4.512c1.339-0.211,2.663-0.53,3.964-0.958
		c1.229-0.409,2.421-0.909,3.571-1.492c-0.704-1.385-1.281-2.829-1.722-4.335C24.451,5.64,24.982,4.13,26.103,3.242"/>
	<path fill="#ED2F3D" d="M11.13,11.826c1.364,3.892,1.364,8.157,0.008,12.021c0.499-1.339,1.77-2.31,3.291-2.349
		c0.224-0.005,0.451-0.008,0.674-0.008c1.337,0,2.663,0.107,3.972,0.312c0.215-1.341,0.315-2.699,0.31-4.063
		c-0.004-1.299-0.111-2.585-0.312-3.858c-1.302,0.203-2.624,0.311-3.952,0.311c-0.234,0-0.466,0-0.703-0.011
		C12.905,14.137,11.629,13.167,11.13,11.826"/>
	<path fill="#B31E8D" d="M19.075,21.802L19.075,21.802c-0.239,1.533-0.625,3.041-1.149,4.518c-0.509,1.432-1.824,2.338-3.252,2.397
		c0.137,0,0.273-0.003,0.411-0.003c3.974,0,7.87,1.312,11.015,3.719c-1.115-0.889-1.647-2.403-1.214-3.859
		c0.445-1.497,1.023-2.947,1.725-4.327c-1.207-0.614-2.467-1.135-3.765-1.551C21.607,22.302,20.352,22,19.075,21.802"/>
	<path fill="#D26226" d="M31.83,5.106c-0.377-1.264-1.289-2.114-2.366-2.465c-1.147-0.375-2.399-0.134-3.361,0.599
		c-1.121,0.891-1.652,2.4-1.22,3.853c0.44,1.506,1.018,2.95,1.722,4.335c1.381-0.705,2.698-1.535,3.94-2.488
		C31.748,8.014,32.213,6.481,31.83,5.106 M29.81,6.53c-0.263,0.802-1.125,1.239-1.929,0.979c-0.805-0.265-1.238-1.127-0.978-1.932
		c0.263-0.802,1.129-1.239,1.929-0.976C29.632,4.862,30.072,5.726,29.81,6.53"/>
	<path fill="#008255" d="M38.896,14.828c-1.191-0.789-2.791-0.828-4.042,0.031c-1.293,0.883-2.492,1.88-3.592,2.976
		c1.099,1.097,2.296,2.093,3.586,2.979c0.624,0.432,1.337,0.638,2.042,0.638c0.709,0,1.408-0.211,2.008-0.606
		c1.004-0.692,1.606-1.771,1.61-3.002C40.509,16.605,39.893,15.517,38.896,14.828 M38.345,18.302
		c-0.262,0.803-1.125,1.242-1.927,0.979c-0.803-0.26-1.241-1.125-0.979-1.932c0.262-0.803,1.127-1.239,1.931-0.977
		C38.17,16.64,38.607,17.501,38.345,18.302"/>
	<path fill="#4D2681" d="M30.551,26.738c-1.239-0.955-2.555-1.788-3.939-2.492c-0.703,1.383-1.283,2.83-1.726,4.327
		c-0.432,1.455,0.096,2.968,1.217,3.859c0.955,0.729,2.136,0.939,3.186,0.655c1.173-0.312,2.164-1.255,2.541-2.515
		C32.215,29.201,31.754,27.662,30.551,26.738 M29.803,30.06c-0.262,0.805-1.126,1.241-1.929,0.976
		c-0.802-0.26-1.239-1.122-0.975-1.923c0.264-0.805,1.126-1.242,1.925-0.982C29.624,28.394,30.065,29.258,29.803,30.06"/>
	<path fill="#972247" d="M14.429,21.497c-1.521,0.039-2.792,1.01-3.291,2.348c-0.423,1.19-0.262,2.413,0.484,3.422
		c0.724,0.974,1.822,1.479,3.051,1.455c1.428-0.062,2.744-0.975,3.252-2.403c0.525-1.477,0.91-2.986,1.149-4.518
		C17.545,21.557,15.994,21.456,14.429,21.497 M15.966,25.569c-0.263,0.802-1.125,1.242-1.925,0.98
		c-0.806-0.265-1.241-1.13-0.979-1.932c0.263-0.804,1.125-1.239,1.925-0.979C15.791,23.903,16.227,24.77,15.966,25.569"/>
	<path fill="#B9131A" d="M17.925,9.365c-0.509-1.435-1.822-2.346-3.252-2.405c-1.252-0.034-2.343,0.497-3.049,1.445
		c-0.737,0.989-0.916,2.218-0.495,3.426c0.499,1.336,1.773,2.308,3.29,2.349c0.233,0.011,0.466,0.013,0.703,0.013
		c1.325,0,2.648-0.109,3.948-0.315C18.83,12.346,18.446,10.839,17.925,9.365 M15.975,11.029c-0.262,0.802-1.124,1.239-1.925,0.979
		c-0.806-0.26-1.242-1.125-0.979-1.934C13.336,9.277,14.196,8.84,15,9.1C15.804,9.365,16.238,10.224,15.975,11.029"/>
	<path d="M50.86,10.245v6.8h2.732c3.168,0,5.869-0.133,5.869-3.332c0-2.733-1.334-3.468-5.968-3.468H50.86z M54.26,8.512
		c4.901,0,7.768,0.832,7.768,5.1c0,4.236-2.967,5.069-7.768,5.069h-3.4v7.3c0,2.233,0,2.268,1.366,2.268h0.668v1.102h-6.602v-1.102
		h0.668c0.6,0,1.267,0.067,1.301-0.602c0.032-0.497,0.066-1.133,0.066-1.666V11.479c0-1.4,0.034-1.869-1.434-1.869h-0.6V8.512H54.26
		z"/>
	<path d="M67.295,18.613c0,0.601-0.066,1.2-0.134,1.666c1.502-3.166,2.568-4.767,3.869-4.767c1.1,0,1.567,0.266,2.3,0.601
		l-0.801,2.067c-0.699-0.47-0.966-0.936-1.632-0.936c-1.001,0-2.101,1.833-3.602,4.933v3.702c0,2.234-0.134,2.367,1.201,2.367h0.466
		v1.102H63.36v-1.102h0.501c1.332,0,1.165-0.133,1.165-2.067v-7.068c0-1.935,0.068-2.067-1.132-2.067H63.36v-1.101h3.934
		L67.295,18.613L67.295,18.613z"/>
	<path d="M80.23,28.248c2.8,0,4.202-1.935,4.202-5.835c0-3.634-1.467-5.402-4.068-5.402c-2.801,0-4.335,2.003-4.335,5.937
		C76.03,26.215,77.431,28.248,80.23,28.248 M80.432,15.447c4.067,0,6.567,2.934,6.567,7.066c0,4.235-2.6,7.303-6.834,7.303
		c-4.402,0-6.703-3.102-6.703-7.201C73.463,18.212,76.431,15.447,80.432,15.447"/>
	<path d="M98.835,18.647c-0.534-0.466-2.567-1.635-4.167-1.635c-1.902,0-3.367,1.899-3.367,5.769c0,3.699,1.367,5.501,3.334,5.501
		c1.533,0,2.834-0.701,4.201-1.601L98.835,18.647L98.835,18.647z M98.902,27.948c-0.868,0.867-2.701,1.901-4.736,1.901
		c-3.235,0-5.434-2.969-5.434-7.103c0-4.6,2.5-7.3,5.734-7.3c1.735,0,3.101,0.698,4.369,1.867v-6.201
		c0-1.234-0.068-1.502-1.134-1.502h-0.567V8.512h3.968v17.369c0,2.266-0.133,2.367,1.201,2.367h0.5v1.102h-3.968L98.902,27.948z"/>
	<path d="M108.97,10.477c0,0.833-0.7,1.532-1.567,1.532c-0.866,0-1.533-0.699-1.533-1.532c0-0.867,0.667-1.567,1.533-1.567
		C108.27,8.91,108.97,9.61,108.97,10.477 M108.536,25.913c0,2.236-0.134,2.335,1.202,2.335h0.498v1.102h-5.634v-1.102h0.501
		c1.333,0,1.166-0.133,1.166-2.335v-8.001c0-0.666-0.134-0.867-1.068-0.867h-0.6v-1.099h3.934L108.536,25.913L108.536,25.913z"/>
	<path d="M121.205,18.548c-1.4-1.002-2.867-1.535-4.102-1.535c-2.066,0-3.399,1.835-3.399,5.47c0,3.367,1.2,5.1,3.468,5.1
		c1.266,0,2.967-0.768,4.033-1.635V18.548z M123.473,29.781c0,2.169-0.3,3.901-0.568,4.403c-0.832,1.5-2.498,2.133-5.031,2.133
		c-1.934,0-4.002-0.365-5.768-1.034l0.633-1.901c1.699,0.936,3.367,1.37,5.336,1.37c2.83,0,3.133-1.668,3.133-4.136v-3.367
		c-1.301,1.167-2.967,1.901-4.602,1.901c-3.301,0-5.466-2.968-5.466-6.77c0-4.068,2.268-6.933,5.667-6.933
		c1.7,0,3.5,0.898,4.469,1.833l-0.101-1.336h3.968v1.101h-0.5c-1.334,0-1.166,0.068-1.166,2.302v10.434H123.473z"/>
	<path d="M131.374,10.477c0,0.833-0.7,1.532-1.567,1.532s-1.533-0.699-1.533-1.532c0-0.867,0.666-1.567,1.533-1.567
		S131.374,9.61,131.374,10.477 M130.939,25.913c0,2.236-0.133,2.335,1.201,2.335h0.498v1.102h-5.633v-1.102h0.501
		c1.333,0,1.165-0.133,1.165-2.335v-8.001c0-0.666-0.132-0.867-1.066-0.867h-0.6v-1.099h3.934V25.913z"/>
	<path d="M140.643,28.248c2.801,0,4.201-1.935,4.201-5.835c0-3.634-1.468-5.402-4.068-5.402c-2.801,0-4.334,2.003-4.334,5.937
		C136.441,26.215,137.842,28.248,140.643,28.248 M140.841,15.447c4.069,0,6.568,2.934,6.568,7.066c0,4.235-2.599,7.303-6.834,7.303
		c-4.4,0-6.701-3.102-6.701-7.201C133.874,18.212,136.84,15.447,140.841,15.447"/>
	<path d="M158.945,18.48c0-1.068-0.034-1.435-1.002-1.435h-0.699v-1.101h3.968v9.937c0,2.234-0.2,2.367,1.168,2.367h0.466v1.102
		h-3.9c0-0.769,0.033-1.401,0.033-1.567c-1.4,1.367-2.867,2.067-4.969,2.067c-4.234,0-4.135-3.002-4.135-5.868V18.48
		c0-1.034,0-1.435-0.967-1.435h-0.766v-1.101h4v8.638c0,2.033,0,3.7,2.434,3.7c1.367,0,3.068-0.568,4.369-1.833V18.48z"/>
	<path d="M173.214,19.214h-1.067v-0.435c0-1.135-1.433-1.769-3.199-1.769c-1.502,0-2.535,0.7-2.535,2.003
		c0,2.432,7.301,2.965,7.301,7.068c0,2.266-1.599,3.699-4.699,3.699c-1,0-2.701-0.299-4.168-0.999V25.98h1.066v0.435
		c0,1.2,1.768,1.799,3.234,1.799c1.802,0,2.668-0.799,2.668-1.833c0-2.669-7.303-2.868-7.303-7.068c0-2.169,1.734-3.866,4.602-3.866
		c1.433,0,2.8,0.432,4.1,0.966L173.214,19.214L173.214,19.214z"/>
	<path d="M173.239,41.426h-0.521v-0.204c0-0.539-0.698-0.842-1.559-0.842c-1.365,0-1.617,1.156-0.488,1.664
		c0.435,0.193,0.935,0.425,1.416,0.659c2.231,1.08,1.82,3.739-0.967,3.739c-0.487,0-1.345-0.146-2.06-0.478v-1.331h0.521v0.209
		c0,0.567,0.887,0.852,1.605,0.852c1.522,0,1.986-1.276,0.432-2.057c-0.486-0.242-1.018-0.487-1.526-0.742
		c-1.915-0.958-1.155-3.254,1.147-3.254c0.697,0,1.365,0.208,1.999,0.458V41.426z"/>
	<path d="M93.781,37.711c0-0.799-0.04-0.838-0.57-0.838h-0.243v-0.518h1.919v4.22c0.649-0.46,1.43-0.937,2.552-0.937
		c1.367,0,2.356,1.218,2.356,3.259c0,2.103-0.973,3.571-2.731,3.571c-0.942,0-1.61-0.349-2.21-0.935l0.033,0.695h-1.919v-0.521
		h0.243c0.527,0,0.57-0.031,0.57-0.994V37.711z M94.887,44.939c0.473,0.3,1.027,0.784,1.999,0.784c1.169,0,1.657-0.834,1.657-2.7
		c0-1.786-0.453-2.641-1.479-2.641c-0.747,0-1.447,0.303-2.177,0.791V44.939z"/>
	<path d="M102.283,41.146c0,0.279-0.037,0.563-0.065,0.786c0.731-1.5,1.248-2.261,1.886-2.261c0.537,0,0.764,0.13,1.122,0.284
		l-0.39,0.981c-0.292-0.264-0.471-0.442-0.796-0.442c-0.487,0-1.026,0.869-1.756,2.337v1.76c0,1.078,0.035,1.117,0.586,1.117h0.225
		v0.521h-2.73v-0.521h0.243c0.539,0,0.57-0.034,0.57-0.979V41.38c0-0.942-0.033-0.98-0.555-0.98h-0.258v-0.521h1.919L102.283,41.146
		L102.283,41.146z"/>
	<path d="M109.94,45.519c-0.406,0.444-1.269,0.935-2.294,0.935c-1.623,0-2.683-1.439-2.683-3.304c0-2.137,1.157-3.509,2.782-3.509
		c0.975,0,1.838,0.588,2.178,0.997l-0.03-0.761h1.932v0.521h-0.245c-0.548,0-0.584,0.038-0.584,0.838v3.634
		c0,0.789,0.043,0.839,0.584,0.839h0.245v0.521h-1.932L109.94,45.519z M109.892,41.174c-0.49-0.299-1.123-0.791-1.937-0.791
		c-1.122,0-1.742,0.981-1.742,2.768c0,1.645,0.553,2.559,1.691,2.559c0.684,0,1.336-0.281,1.988-0.802V41.174z"/>
	<path d="M112.6,40.399v-0.521h1.885c0,0.203,0,0.502-0.035,0.761c0.752-0.615,1.727-1,2.554-1c1.708,0,2.067,1.125,2.067,2.896
		v2.068c0,1.041,0.059,1.105,0.568,1.105h0.242v0.521h-2.748v-0.521h0.246c0.553,0,0.584-0.034,0.584-1.105v-2.291
		c0-1.044-0.031-1.933-1.285-1.933c-0.602,0-1.443,0.306-2.131,0.825v3.397c0,1.072,0.028,1.105,0.572,1.105h0.245v0.521h-2.767
		v-0.521h0.262c0.648,0,0.584-0.062,0.584-1.105V41.41c0-0.934-0.068-1.012-0.506-1.012L112.6,40.399L112.6,40.399z"/>
	<path d="M125.096,45.566c-0.426,0.414-1.316,0.903-2.312,0.903c-1.575,0-2.648-1.407-2.648-3.365c0-2.183,1.219-3.463,2.797-3.463
		c0.846,0,1.514,0.33,2.129,0.885v-2.942c0-0.625-0.076-0.711-0.551-0.711h-0.275v-0.521h1.929v8.239
		c0,1.062,0.043,1.117,0.586,1.117h0.246v0.523h-1.935L125.096,45.566z M125.062,41.158c-0.258-0.221-1.254-0.778-2.031-0.778
		c-0.924,0-1.643,0.903-1.643,2.737c0,1.757,0.664,2.606,1.623,2.606c0.749,0,1.385-0.328,2.049-0.758v-3.808H125.062z"/>
	<path d="M132.829,45.709h-0.488c-0.694,0-0.78-0.099-0.78-0.802v-8.553h-1.916v0.518h0.371c0.36,0,0.44,0.109,0.44,0.57v8.787
		h2.373V45.709z"/>
	<path d="M136.16,39.641c1.982,0,3.201,1.393,3.201,3.351c0,2.007-1.266,3.462-3.334,3.462c-2.145,0-3.268-1.466-3.268-3.416
		C132.761,40.953,134.209,39.641,136.16,39.641 M136.064,45.709c1.363,0,2.049-0.914,2.049-2.765c0-1.723-0.717-2.564-1.983-2.564
		c-1.368,0-2.114,0.956-2.114,2.817C134.016,44.748,134.698,45.709,136.064,45.709"/>
	<path d="M146.049,46.441c0,1.022-0.145,1.846-0.275,2.08c-0.404,0.713-1.221,1.013-2.455,1.013c-0.94,0-1.95-0.172-2.812-0.487
		l0.31-0.9c0.828,0.441,1.643,0.647,2.602,0.647c1.381,0,1.53-0.792,1.53-1.96v-1.596c-0.638,0.554-1.451,0.897-2.245,0.897
		c-1.609,0-2.663-1.402-2.663-3.206c0-1.93,1.104-3.288,2.761-3.288c0.832,0,1.708,0.427,2.178,0.866l-0.049-0.63h1.934v0.521h-0.24
		c-0.546,0-0.571,0.027-0.571,1.091v4.951H146.049z M144.947,41.112c-0.686-0.474-1.402-0.732-2.002-0.732
		c-1.01,0-1.656,0.872-1.656,2.597c0,1.596,0.583,2.418,1.689,2.418c0.619,0,1.447-0.362,1.969-0.776V41.112z"/>
	<path d="M149.473,44.603c0,1.057-0.068,1.105,0.582,1.105h0.246v0.523h-2.749v-0.523h0.245c0.651,0,0.567-0.062,0.567-1.105v-3.794
		c0-0.314-0.065-0.411-0.521-0.411h-0.291v-0.521h1.921V44.603L149.473,44.603z"/>
	<path d="M149.684,38.367c0,0.396-0.34,0.724-0.767,0.724c-0.422,0-0.747-0.327-0.747-0.724c0-0.411,0.325-0.742,0.747-0.742
		C149.343,37.626,149.684,37.956,149.684,38.367"/>
	<path d="M161.588,44.603c0,1.057-0.062,1.105,0.589,1.105h0.243v0.523h-2.749v-0.523h0.245c0.65,0,0.568-0.062,0.568-1.105v-3.794
		c0-0.314-0.065-0.411-0.518-0.411h-0.295v-0.521h1.917L161.588,44.603L161.588,44.603z"/>
	<path d="M161.8,38.367c0,0.396-0.338,0.724-0.76,0.724c-0.425,0-0.75-0.327-0.75-0.724c0-0.411,0.325-0.742,0.75-0.742
		C161.463,37.626,161.8,37.956,161.8,38.367"/>
	<path d="M155.07,41.426h-0.522v-0.204c0-0.539-0.696-0.842-1.559-0.842c-1.363,0-1.617,1.156-0.483,1.664
		c0.428,0.193,0.932,0.425,1.416,0.659c2.229,1.08,1.814,3.739-0.97,3.739c-0.488,0-1.345-0.146-2.062-0.478v-1.331h0.518v0.209
		c0,0.567,0.891,0.852,1.609,0.852c1.523,0,1.986-1.276,0.43-2.057c-0.483-0.242-1.016-0.487-1.522-0.742
		c-1.916-0.958-1.159-3.254,1.144-3.254c0.701,0,1.367,0.208,2,0.458v1.326H155.07z"/>
	<path d="M156.566,44.226v-3.833h-0.86v-0.516h0.86v-2.083h1.106v2.083h2.606v0.516h-2.606v3.642c0,1.25,0.017,1.674,0.843,1.674
		l0.387,0.005v0.519C156.93,46.787,156.566,46.006,156.566,44.226"/>
	<path d="M167.427,41.426v-0.204c0-0.553-0.563-0.852-1.372-0.852c-1.13,0-2.011,0.877-2.011,2.78c0,1.564,0.806,2.572,2.089,2.572
		c0.633,0,1.184-0.278,1.674-0.565l0.377,0.823c-0.695,0.299-1.353,0.474-2.18,0.474c-2.088,0-3.202-1.453-3.202-3.35
		c0-2.042,1.202-3.414,3.218-3.414c0.845,0,1.508,0.233,2.013,0.409v1.327L167.427,41.426L167.427,41.426z"/>
	<polygon points="175.641,42.038 175.184,42.038 175.184,40.174 174.465,40.174 174.465,39.815 176.361,39.815 176.361,40.174 
		175.641,40.174 	"/>
	<polygon points="177.57,42.038 177.055,40.346 177.055,42.038 176.643,42.038 176.643,39.815 177.299,39.815 177.789,41.466 
		178.273,39.815 178.938,39.815 178.938,42.038 178.532,42.038 178.532,40.346 178.02,42.038 	"/>
</g>
</svg>
