<?xml version="1.0" encoding="utf-8"?>
<!-- Generator: Adobe Illustrator 16.0.0, SVG Export Plug-In . SVG Version: 6.00 Build 0)  -->
<!DOCTYPE svg PUBLIC "-//W3C//DTD SVG 1.1//EN" "http://www.w3.org/Graphics/SVG/1.1/DTD/svg11.dtd">
<svg version="1.1" id="Layer_1" xmlns="http://www.w3.org/2000/svg" xmlns:xlink="http://www.w3.org/1999/xlink" x="0px" y="0px"
	 width="36.925px" height="36.925px" viewBox="0 0 36.925 36.925" enable-background="new 0 0 36.925 36.925" xml:space="preserve">
<g>
	<g>
		<path fill="#4C2682" d="M18.463,0C8.266,0,0,8.266,0,18.463c0,10.196,8.266,18.462,18.463,18.462
			c10.196,0,18.462-8.266,18.462-18.462C36.925,8.266,28.659,0,18.463,0z"/>
	</g>
	<path fill="#FFFFFF" d="M22.675,10.424h-2.243v-1.71h2.243v-2.23h1.76v2.23h2.242v1.71h-2.242v2.231h-1.76V10.424z M19.999,22.615
		c0.339,0,0.678,0,1.017,0c0.215,0,0.266-0.051,0.266-0.269c0-2.178,0-4.357,0-6.537c0-0.028,0.001-0.059-0.001-0.088
		c-0.008-0.118-0.086-0.201-0.203-0.213c-0.509-0.044-1.019-0.088-1.529-0.132c-0.615-0.053-1.231-0.115-1.85-0.159
		c-0.331-0.023-0.66-0.093-0.998-0.058c-0.518,0.055-1.04,0.092-1.559,0.139c-0.789,0.068-1.578,0.141-2.368,0.208
		c-0.164,0.014-0.24,0.088-0.24,0.254c0,2.208,0,4.416,0,6.624c0,0.166,0.063,0.23,0.227,0.23c0.383,0,0.765,0,1.147,0
		c0.039,0,0.077,0,0.119,0c0.007,0.03,0.015,0.051,0.016,0.069c0.039,0.475,0.074,0.948,0.112,1.422
		c0.045,0.582,0.091,1.163,0.138,1.745c0.055,0.686,0.108,1.369,0.165,2.056c0.037,0.48,0.074,0.962,0.114,1.442
		c0.012,0.148,0.072,0.201,0.212,0.203c1.422,0.017,2.845,0.03,4.268,0.042c0.139,0.002,0.205-0.058,0.218-0.197
		c0.046-0.494,0.089-0.988,0.132-1.483c0.068-0.768,0.135-1.535,0.202-2.303c0.071-0.793,0.142-1.586,0.213-2.376
		c0.019-0.206,0.038-0.407,0.058-0.62C19.922,22.615,19.961,22.615,19.999,22.615z M16.902,10.019
		c-1.284-0.003-2.335,1.04-2.337,2.323c-0.005,1.287,1.041,2.339,2.33,2.339c1.282,0.003,2.33-1.042,2.333-2.325
		C19.229,11.07,18.186,10.021,16.902,10.019z"/>
</g>
</svg>
