<?xml version="1.0" encoding="utf-8"?>
<!-- Generator: Adobe Illustrator 16.0.0, SVG Export Plug-In . SVG Version: 6.00 Build 0)  -->
<!DOCTYPE svg PUBLIC "-//W3C//DTD SVG 1.1//EN" "http://www.w3.org/Graphics/SVG/1.1/DTD/svg11.dtd">
<svg version="1.1" id="Layer_1" xmlns="http://www.w3.org/2000/svg" xmlns:xlink="http://www.w3.org/1999/xlink" x="0px" y="0px"
	 width="36.925px" height="36.925px" viewBox="0 0 36.925 36.925" enable-background="new 0 0 36.925 36.925" xml:space="preserve">
<g>
	<g>
		<rect x="-201" y="1025.462" fill="#4C2682" width="1280" height="182"/>
		<circle fill="#FFFFFF" cx="-32.552" cy="1122.876" r="13.448"/>
		<text transform="matrix(1 0 0 1 -38.835 1126.7788)" fill="#4C2682" font-family="'Gotham-Bold'" font-size="11.5498">¿?</text>
		<circle fill="#FFFFFF" cx="305.461" cy="1122.705" r="13.449"/>
		<text transform="matrix(1 0 0 1 296.0825 1127.6069)" fill="#4C2682" font-family="'Gotham-Bold'" font-size="11.5498">MU</text>
		<circle fill="#FFFFFF" cx="664.801" cy="1123.929" r="13.449"/>
		<g id="yDeL4F_1_">
			<g>
				<path fill-rule="evenodd" clip-rule="evenodd" fill="#4C2682" d="M667.589,1126.896c-0.017,0.18-0.033,0.35-0.049,0.523
					c-0.06,0.668-0.12,1.338-0.18,2.008c-0.057,0.648-0.113,1.297-0.171,1.945c-0.036,0.418-0.073,0.836-0.111,1.254
					c-0.011,0.117-0.066,0.168-0.185,0.166c-1.201-0.01-2.403-0.021-3.604-0.035c-0.118-0.002-0.17-0.047-0.18-0.172
					c-0.034-0.406-0.064-0.812-0.097-1.219c-0.047-0.58-0.092-1.158-0.139-1.736c-0.039-0.492-0.078-0.982-0.116-1.475
					c-0.032-0.4-0.062-0.801-0.095-1.201c-0.001-0.016-0.008-0.033-0.014-0.059c-0.035,0-0.067,0-0.101,0c-0.322,0-0.646,0-0.969,0
					c-0.138,0-0.191-0.055-0.191-0.195c0-1.865,0-3.73,0-5.596c0-0.141,0.064-0.203,0.203-0.215c0.667-0.057,1.334-0.117,2-0.176
					c0.438-0.039,0.88-0.07,1.317-0.117c0.285-0.029,0.563,0.029,0.843,0.049c0.522,0.037,1.043,0.09,1.563,0.135
					c0.431,0.037,0.861,0.074,1.292,0.111c0.099,0.01,0.164,0.08,0.171,0.18c0.002,0.025,0.001,0.051,0.001,0.074
					c0,1.842,0,3.684,0,5.523c0,0.184-0.043,0.227-0.225,0.227c-0.286,0-0.572,0-0.858,0
					C667.665,1126.896,667.631,1126.896,667.589,1126.896z"/>
				<path fill-rule="evenodd" clip-rule="evenodd" fill="#4C2682" d="M660.853,1121.4c0,0.043,0,0.082,0,0.121
					c0,1.713-0.001,3.426,0.001,5.139c0,0.188,0.035,0.367,0.16,0.521c0.024,0.029,0.032,0.084,0.028,0.125
					c-0.073,0.861-0.15,1.721-0.227,2.582c-0.041,0.459-0.083,0.92-0.125,1.381c-0.01,0.102-0.054,0.135-0.177,0.135
					c-0.909-0.01-1.819-0.02-2.729-0.029c-0.082-0.002-0.163-0.002-0.246-0.004c-0.106-0.002-0.143-0.033-0.151-0.139
					c-0.042-0.512-0.084-1.023-0.125-1.537c-0.051-0.648-0.102-1.297-0.153-1.945c-0.028-0.357-0.057-0.715-0.086-1.074
					c-0.005-0.057-0.01-0.113-0.017-0.186c-0.035,0-0.068,0-0.101,0c-0.262,0-0.522,0.002-0.784,0c-0.128,0-0.173-0.043-0.173-0.168
					c-0.001-1.549-0.001-3.098,0-4.646c0-0.127,0.045-0.172,0.175-0.184c0.951-0.086,1.901-0.174,2.854-0.25
					c0.19-0.016,0.387,0.021,0.582,0.039c0.402,0.033,0.806,0.07,1.209,0.105C660.793,1121.388,660.82,1121.394,660.853,1121.4z"/>
				<path fill-rule="evenodd" clip-rule="evenodd" fill="#4C2682" d="M668.63,1127.437c0.067-0.016,0.132-0.029,0.195-0.047
					c0.233-0.064,0.387-0.213,0.445-0.445c0.029-0.117,0.042-0.24,0.043-0.361c0.002-1.703,0.002-3.408,0.002-5.111
					c0-0.039,0-0.078,0-0.125c0.189-0.018,0.374-0.035,0.559-0.053c0.142-0.012,0.285-0.016,0.427-0.037
					c0.339-0.049,0.673,0.018,1.009,0.043c0.54,0.041,1.078,0.094,1.618,0.141c0.193,0.018,0.388,0.033,0.582,0.053
					c0.086,0.008,0.137,0.061,0.144,0.148c0.002,0.027,0,0.055,0,0.082c0,1.521,0,3.043,0,4.564c0,0.168-0.033,0.201-0.203,0.201
					c-0.237,0.002-0.475,0.002-0.712,0c-0.062-0.002-0.083,0.018-0.089,0.08c-0.091,1.045-0.184,2.092-0.276,3.137
					c-0.047,0.521-0.095,1.041-0.142,1.562c-0.009,0.102-0.055,0.135-0.176,0.135c-0.95-0.01-1.899-0.021-2.849-0.031
					c-0.271-0.002-0.271-0.004-0.291-0.277c-0.096-1.199-0.19-2.4-0.286-3.602C668.629,1127.476,668.63,1127.458,668.63,1127.437z"
					/>
				<path fill-rule="evenodd" clip-rule="evenodd" fill="#4C2682" d="M667.045,1118.228c-0.002,1.084-0.888,1.967-1.971,1.965
					c-1.09,0-1.973-0.889-1.969-1.977c0.002-1.084,0.89-1.965,1.975-1.963C666.165,1116.255,667.046,1117.142,667.045,1118.228z"/>
				<path fill-rule="evenodd" clip-rule="evenodd" fill="#4C2682" d="M660.666,1119.263c0.002,0.898-0.735,1.639-1.637,1.641
					c-0.907,0.004-1.645-0.73-1.645-1.637c-0.002-0.904,0.73-1.639,1.633-1.643C659.923,1117.623,660.664,1118.361,660.666,1119.263
					z"/>
				<path fill-rule="evenodd" clip-rule="evenodd" fill="#4C2682" d="M672.205,1119.224c0.019,0.869-0.643,1.629-1.569,1.678
					c-0.889,0.047-1.665-0.656-1.708-1.543c-0.046-0.924,0.65-1.691,1.573-1.732C671.407,1117.585,672.16,1118.291,672.205,1119.224
					z"/>
			</g>
		</g>
		<g>
			<text transform="matrix(1 0 0 1 -45.9995 1073.187)" fill="#FFFFFF" font-family="'Gotham-Book'" font-size="18">Staff Allocation | Status</text>
		</g>
		<text transform="matrix(1 0 0 1 0 1114.8647)"><tspan x="0" y="0" fill="#FFFFFF" font-family="'Gotham-Bold'" font-size="16">Questions or issues:</tspan><tspan x="0" y="25" fill="#FFFFFF" font-family="'Gotham-Book'" font-size="16">adrian.diaz@prodigious.com</tspan></text>
		<text transform="matrix(1 0 0 1 336.8433 1114.8647)"><tspan x="0" y="0" fill="#FFFFFF" font-family="'Gotham-Bold'" font-size="16">MU Booking:</tspan><tspan x="0" y="25" fill="#FFFFFF" font-family="'Gotham-Book'" font-size="16">adrian.diaz@prodigious.com</tspan></text>
		<text transform="matrix(1 0 0 1 697.3325 1114.8647)"><tspan x="0" y="0" fill="#FFFFFF" font-family="'Gotham-Bold'" font-size="16">Unit based work:</tspan><tspan x="0" y="25" fill="#FFFFFF" font-family="'Gotham-Book'" font-size="16">ned.elmore@prodigious.com</tspan></text>
	</g>
	<line fill="#4C2682" stroke="#FFFFFF" stroke-miterlimit="10" x1="255.5" y1="1096.462" x2="255.5" y2="1147.462"/>
	<line fill="#4C2682" stroke="#FFFFFF" stroke-miterlimit="10" x1="608.5" y1="1096.462" x2="608.5" y2="1147.462"/>
</g>
<rect x="-426" y="348.462" fill="#81BF40" width="36" height="36"/>
<rect x="-462" y="348.462" fill="#F6881F" width="36" height="36"/>
<rect x="-498" y="348.462" fill="#BB141A" width="36" height="36"/>
<rect x="-426" y="384.462" fill="#01B4DD" width="36" height="36"/>
<rect x="-462" y="384.462" fill="#4C2682" width="36" height="36"/>
<rect x="-498" y="384.462" fill="#EE2C3E" width="36" height="36"/>
<text transform="matrix(1 0 0 1 145.4297 445.3838)" font-family="'Gotham-Book'" font-size="50">Staff Allocation | Status</text>
<rect x="-46" y="620.462" opacity="0.2" width="457" height="33"/>
<rect x="-46" y="690.462" opacity="0.2" width="457" height="34"/>
<g>
	<text transform="matrix(1 0 0 1 -45.9995 609.3218)" font-family="'Gotham-Book'" font-size="17">Name:</text>
</g>
<g>
	<text transform="matrix(1 0 0 1 -45.9995 680.3218)" font-family="'Gotham-Book'" font-size="17">Country:</text>
</g>
<rect x="-46" y="757.462" opacity="0.2" width="457" height="34"/>
<g>
	<text transform="matrix(1 0 0 1 -45.9995 747.3218)" font-family="'Gotham-Book'" font-size="17">Category:</text>
</g>
<rect x="467" y="619.462" opacity="0.2" width="457" height="34"/>
<g>
	<text transform="matrix(1 0 0 1 467.0005 609.3218)" font-family="'Gotham-Book'" font-size="17">Position:</text>
</g>
<rect x="467" y="690.462" opacity="0.2" width="457" height="101"/>
<g>
	<text transform="matrix(1 0 0 1 467.0005 680.1011)" font-family="'Gotham-Book'" font-size="17">skills:</text>
</g>
<g>
	<text transform="matrix(1 0 0 1 -36.9995 780.2964)" font-family="'Gotham-Book'" font-size="17">Design</text>
</g>
<text transform="matrix(1 0 0 1 -45.9995 524.0171)" fill="#4C2682" font-family="'Gotham-Bold'" font-size="19.9669">CREATE PROFILE</text>
<rect x="139" y="522.462" fill="#4C2682" width="785" height="3"/>
<rect x="713" y="825.462" fill="#4C2682" width="211" height="41"/>
<text transform="matrix(1 0 0 1 741.9829 852.9683)" fill="#FFFFFF" font-family="'Gotham-Bold'" font-size="17">CREATE PROFILE</text>
<g>
	<polygon points="391,772.462 397,772.462 394,766.795 	"/>
	<polygon points="391,777.462 397,777.462 394,783.129 	"/>
</g>
<g>
	<text transform="matrix(1 0 0 1 553.8286 214.9897)" font-family="'Gotham-Book'" font-size="18">DELETE PROFILE</text>
</g>
<g>
	<text transform="matrix(1 0 0 1 344.8223 214.9897)" font-family="'Gotham-Book'" font-size="18">ADD PROFILE</text>
</g>
<g>
	<text transform="matrix(1 0 0 1 792.4731 214.9897)" font-family="'Gotham-Book'" font-size="18">AVAILABILITY</text>
</g>
<rect x="-201" y="259.462" fill="#4C2682" width="1280" height="35"/>
<g>
	<text transform="matrix(1 0 0 1 773.6509 282.9624)" fill="#FFFFFF" font-family="'Gotham-Book'" font-size="18">Welcome Adrían</text>
</g>
<g>
	<g>
		<path fill="#4C2682" d="M316.001,188.113c-10.197,0-18.463,8.266-18.463,18.463c0,10.196,8.266,18.462,18.463,18.462
			c10.196,0,18.462-8.266,18.462-18.462C334.463,196.378,326.197,188.113,316.001,188.113z"/>
	</g>
	<path fill="#FFFFFF" d="M320.213,198.537h-2.243v-1.71h2.243v-2.23h1.76v2.23h2.242v1.71h-2.242v2.231h-1.76V198.537z
		 M317.537,210.728c0.339,0,0.678,0,1.017,0c0.215,0,0.266-0.051,0.266-0.269c0-2.178,0-4.357,0-6.537
		c0-0.028,0.001-0.059-0.001-0.088c-0.008-0.118-0.086-0.201-0.203-0.213c-0.509-0.044-1.019-0.088-1.529-0.132
		c-0.615-0.053-1.231-0.115-1.85-0.159c-0.331-0.023-0.66-0.093-0.998-0.058c-0.518,0.055-1.04,0.092-1.559,0.139
		c-0.789,0.068-1.578,0.141-2.368,0.208c-0.164,0.014-0.24,0.088-0.24,0.254c0,2.208,0,4.416,0,6.624c0,0.166,0.063,0.23,0.227,0.23
		c0.383,0,0.765,0,1.147,0c0.039,0,0.077,0,0.119,0c0.007,0.03,0.015,0.051,0.016,0.069c0.039,0.475,0.074,0.948,0.112,1.422
		c0.045,0.582,0.091,1.163,0.138,1.745c0.055,0.686,0.108,1.369,0.165,2.056c0.037,0.48,0.074,0.962,0.114,1.442
		c0.012,0.148,0.072,0.201,0.212,0.203c1.422,0.017,2.845,0.03,4.268,0.042c0.139,0.002,0.205-0.058,0.218-0.197
		c0.046-0.494,0.089-0.988,0.132-1.483c0.068-0.768,0.135-1.535,0.202-2.303c0.071-0.793,0.142-1.586,0.213-2.376
		c0.019-0.206,0.038-0.407,0.058-0.62C317.46,210.728,317.499,210.728,317.537,210.728z M314.44,198.131
		c-1.284-0.003-2.335,1.04-2.337,2.323c-0.005,1.287,1.041,2.339,2.33,2.339c1.282,0.003,2.33-1.042,2.333-2.325
		C316.768,199.183,315.724,198.133,314.44,198.131z"/>
</g>
<g>
	<path fill="#4C2682" d="M526.5,186.536c-10.315,0-18.68,8.362-18.68,18.68c0,10.316,8.364,18.681,18.68,18.681
		c10.318,0,18.681-8.364,18.681-18.681C545.181,194.898,536.819,186.536,526.5,186.536z"/>
	<g>
		<path fill="#FFFFFF" d="M529.331,209.417c0.343,0,0.686,0,1.027,0c0.218,0,0.27-0.052,0.27-0.271c0-2.203,0-4.41,0-6.615
			c0-0.028,0.001-0.059-0.002-0.089c-0.008-0.119-0.087-0.204-0.205-0.215c-0.515-0.045-1.03-0.089-1.547-0.134
			c-0.623-0.054-1.246-0.116-1.873-0.161c-0.334-0.024-0.666-0.094-1.01-0.058c-0.523,0.055-1.052,0.092-1.577,0.14
			c-0.796,0.07-1.596,0.144-2.396,0.21c-0.165,0.014-0.242,0.09-0.242,0.258c0,2.233,0,4.467,0,6.701
			c0,0.168,0.064,0.234,0.229,0.234c0.386,0,0.774,0,1.161,0c0.037,0,0.077,0,0.119,0c0.008,0.03,0.016,0.052,0.017,0.07
			c0.038,0.479,0.074,0.959,0.114,1.438c0.045,0.589,0.091,1.177,0.139,1.765c0.055,0.694,0.109,1.387,0.165,2.081
			c0.038,0.485,0.075,0.973,0.116,1.46c0.012,0.149,0.073,0.202,0.215,0.205c1.438,0.018,2.879,0.03,4.316,0.042
			c0.143,0.003,0.209-0.058,0.222-0.2c0.046-0.5,0.09-1,0.134-1.5c0.068-0.777,0.137-1.554,0.205-2.33
			c0.071-0.803,0.143-1.604,0.215-2.404c0.02-0.209,0.037-0.412,0.058-0.627C529.252,209.417,529.291,209.417,529.331,209.417z
			 M526.196,196.671c-1.299-0.002-2.361,1.053-2.364,2.351c-0.004,1.304,1.054,2.368,2.358,2.368
			c1.297,0.001,2.358-1.055,2.361-2.354C528.551,197.736,527.495,196.674,526.196,196.671z"/>
		<rect x="531" y="197.462" fill="#FFFFFF" width="4" height="1"/>
	</g>
</g>
<g>
	<path fill="#4C2682" d="M770.987,186.326c-10.317,0-18.68,8.363-18.68,18.68s8.362,18.682,18.68,18.682s18.68-8.365,18.68-18.682
		S781.304,186.326,770.987,186.326z"/>
	<path fill="#FFFFFF" d="M770.886,214.31c-5.267,0-9.552-4.285-9.552-9.553s4.285-9.553,9.552-9.553
		c5.269,0,9.554,4.285,9.554,9.553S776.155,214.31,770.886,214.31z M770.886,196.477c-4.564,0-8.279,3.715-8.279,8.28
		c0,4.564,3.715,8.279,8.279,8.279c4.565,0,8.28-3.715,8.28-8.279C779.167,200.192,775.452,196.477,770.886,196.477z"/>
	<polygon fill="#FFFFFF" points="770.727,204.462 770.17,200.734 770.987,198.022 771.604,200.619 771.206,204.462 	"/>
	<polygon fill="#FFFFFF" points="770.893,204.8 772.848,203.101 774.679,202.552 773.393,203.863 771.063,205.062 	"/>
	<g>
		<circle fill="#4C2682" cx="770.894" cy="204.95" r="0.657"/>
		<path fill="#FFFFFF" d="M770.893,205.766c-0.45,0-0.815-0.366-0.815-0.816s0.365-0.817,0.815-0.817
			c0.449,0,0.816,0.367,0.816,0.817S771.342,205.766,770.893,205.766z M770.893,204.453c-0.273,0-0.498,0.223-0.498,0.497
			s0.225,0.497,0.498,0.497c0.275,0,0.498-0.223,0.498-0.497S771.168,204.453,770.893,204.453z"/>
	</g>
</g>
<path fill="#4C2682" d="M18.462,0C8.265,0,0,8.266,0,18.462c0,10.195,8.265,18.463,18.462,18.463s18.462-8.268,18.462-18.463
	C36.925,8.266,28.66,0,18.462,0z"/>
<path fill="#FFFFFF" d="M18.732,27.31c-5.31,0-9.63-4.285-9.63-9.553s4.32-9.553,9.63-9.553c5.312,0,9.632,4.285,9.632,9.553
	S24.043,27.31,18.732,27.31z M18.732,9.477c-4.602,0-8.348,3.715-8.348,8.28c0,4.564,3.746,8.279,8.348,8.279
	c4.603,0,8.348-3.715,8.348-8.279C27.08,13.192,23.335,9.477,18.732,9.477z"/>
<polygon fill="#FFFFFF" points="18.571,17.462 18.01,13.734 18.833,11.022 19.456,13.619 19.054,17.462 "/>
<polygon fill="#FFFFFF" points="18.739,17.8 20.71,16.101 22.556,15.552 21.259,16.863 18.91,18.062 "/>
<g>
	<ellipse fill="#4C2682" cx="18.74" cy="17.95" rx="0.663" ry="0.656"/>
	<path fill="#FFFFFF" d="M18.739,18.766c-0.454,0-0.822-0.366-0.822-0.816s0.368-0.817,0.822-0.817c0.453,0,0.823,0.367,0.823,0.817
		S19.192,18.766,18.739,18.766z M18.739,17.453c-0.276,0-0.502,0.223-0.502,0.497s0.226,0.497,0.502,0.497
		c0.278,0,0.502-0.223,0.502-0.497S19.017,17.453,18.739,17.453z"/>
</g>
<rect x="-243" y="116.462" width="42" height="42"/>
</svg>
